<mxfile host="Electron" modified="2024-05-25T13:47:32.396Z" agent="Mozilla/5.0 (Windows NT 10.0; Win64; x64) AppleWebKit/537.36 (KHTML, like Gecko) draw.io/24.4.0 Chrome/120.0.6099.109 Electron/28.1.0 Safari/537.36" etag="00ElsMSN6H0t65SDLfck" version="24.4.0" type="device">
  <diagram name="第 1 页" id="FSYTgjtTbTNzyVuimqvj">
    <mxGraphModel dx="1502" dy="705" grid="1" gridSize="10" guides="1" tooltips="1" connect="1" arrows="1" fold="1" page="1" pageScale="1" pageWidth="1169" pageHeight="827" math="0" shadow="0">
      <root>
        <mxCell id="0" />
        <mxCell id="1" parent="0" />
        <mxCell id="m8FbGWifOpmXwqDXC0YP-8" value="" style="group" vertex="1" connectable="0" parent="1">
          <mxGeometry x="370" y="70" width="120" height="30" as="geometry" />
        </mxCell>
        <mxCell id="m8FbGWifOpmXwqDXC0YP-1" value="cp" style="rounded=0;whiteSpace=wrap;html=1;fontStyle=1;fontSize=18;fillColor=#dae8fc;strokeColor=#6c8ebf;" vertex="1" parent="m8FbGWifOpmXwqDXC0YP-8">
          <mxGeometry width="40" height="30" as="geometry" />
        </mxCell>
        <mxCell id="m8FbGWifOpmXwqDXC0YP-2" value="cw" style="rounded=0;whiteSpace=wrap;html=1;fontStyle=1;fontSize=18;fillColor=#dae8fc;strokeColor=#6c8ebf;" vertex="1" parent="m8FbGWifOpmXwqDXC0YP-8">
          <mxGeometry x="40" width="40" height="30" as="geometry" />
        </mxCell>
        <mxCell id="m8FbGWifOpmXwqDXC0YP-4" value="j" style="rounded=0;whiteSpace=wrap;html=1;fontStyle=1;fontSize=18;fillColor=#dae8fc;strokeColor=#6c8ebf;" vertex="1" parent="m8FbGWifOpmXwqDXC0YP-8">
          <mxGeometry x="80" width="40" height="30" as="geometry" />
        </mxCell>
        <mxCell id="m8FbGWifOpmXwqDXC0YP-9" value="" style="group" vertex="1" connectable="0" parent="1">
          <mxGeometry x="220" y="140" width="120" height="30" as="geometry" />
        </mxCell>
        <mxCell id="m8FbGWifOpmXwqDXC0YP-10" value="" style="rounded=0;whiteSpace=wrap;html=1;fontStyle=1;fontSize=18;fillColor=#dae8fc;strokeColor=#6c8ebf;" vertex="1" parent="m8FbGWifOpmXwqDXC0YP-9">
          <mxGeometry width="40" height="30" as="geometry" />
        </mxCell>
        <mxCell id="m8FbGWifOpmXwqDXC0YP-11" value="" style="rounded=0;whiteSpace=wrap;html=1;fontStyle=1;fontSize=18;fillColor=#dae8fc;strokeColor=#6c8ebf;" vertex="1" parent="m8FbGWifOpmXwqDXC0YP-9">
          <mxGeometry x="40" width="40" height="30" as="geometry" />
        </mxCell>
        <mxCell id="m8FbGWifOpmXwqDXC0YP-12" value="1" style="rounded=0;whiteSpace=wrap;html=1;fontStyle=1;fontSize=18;fillColor=#dae8fc;strokeColor=#6c8ebf;" vertex="1" parent="m8FbGWifOpmXwqDXC0YP-9">
          <mxGeometry x="80" width="40" height="30" as="geometry" />
        </mxCell>
        <mxCell id="m8FbGWifOpmXwqDXC0YP-13" value="" style="group" vertex="1" connectable="0" parent="1">
          <mxGeometry x="370" y="140" width="120" height="30" as="geometry" />
        </mxCell>
        <mxCell id="m8FbGWifOpmXwqDXC0YP-14" value="" style="rounded=0;whiteSpace=wrap;html=1;fontStyle=1;fontSize=18;fillColor=#dae8fc;strokeColor=#6c8ebf;" vertex="1" parent="m8FbGWifOpmXwqDXC0YP-13">
          <mxGeometry width="40" height="30" as="geometry" />
        </mxCell>
        <mxCell id="m8FbGWifOpmXwqDXC0YP-15" value="" style="rounded=0;whiteSpace=wrap;html=1;fontStyle=1;fontSize=18;fillColor=#dae8fc;strokeColor=#6c8ebf;" vertex="1" parent="m8FbGWifOpmXwqDXC0YP-13">
          <mxGeometry x="40" width="40" height="30" as="geometry" />
        </mxCell>
        <mxCell id="m8FbGWifOpmXwqDXC0YP-16" value="x" style="rounded=0;whiteSpace=wrap;html=1;fontStyle=1;fontSize=18;fillColor=#dae8fc;strokeColor=#6c8ebf;" vertex="1" parent="m8FbGWifOpmXwqDXC0YP-13">
          <mxGeometry x="80" width="40" height="30" as="geometry" />
        </mxCell>
        <mxCell id="m8FbGWifOpmXwqDXC0YP-17" value="" style="group" vertex="1" connectable="0" parent="1">
          <mxGeometry x="510" y="140" width="120" height="30" as="geometry" />
        </mxCell>
        <mxCell id="m8FbGWifOpmXwqDXC0YP-18" value="" style="rounded=0;whiteSpace=wrap;html=1;fontStyle=1;fontSize=18;fillColor=#dae8fc;strokeColor=#6c8ebf;" vertex="1" parent="m8FbGWifOpmXwqDXC0YP-17">
          <mxGeometry width="40" height="30" as="geometry" />
        </mxCell>
        <mxCell id="m8FbGWifOpmXwqDXC0YP-19" value="" style="rounded=0;whiteSpace=wrap;html=1;fontStyle=1;fontSize=18;fillColor=#dae8fc;strokeColor=#6c8ebf;" vertex="1" parent="m8FbGWifOpmXwqDXC0YP-17">
          <mxGeometry x="40" width="40" height="30" as="geometry" />
        </mxCell>
        <mxCell id="m8FbGWifOpmXwqDXC0YP-49" style="rounded=0;orthogonalLoop=1;jettySize=auto;html=1;exitX=0.5;exitY=1;exitDx=0;exitDy=0;" edge="1" parent="m8FbGWifOpmXwqDXC0YP-17" source="m8FbGWifOpmXwqDXC0YP-20">
          <mxGeometry relative="1" as="geometry">
            <mxPoint x="210" y="80" as="targetPoint" />
          </mxGeometry>
        </mxCell>
        <mxCell id="m8FbGWifOpmXwqDXC0YP-20" value="m" style="rounded=0;whiteSpace=wrap;html=1;fontStyle=1;fontSize=18;fillColor=#dae8fc;strokeColor=#6c8ebf;" vertex="1" parent="m8FbGWifOpmXwqDXC0YP-17">
          <mxGeometry x="80" width="40" height="30" as="geometry" />
        </mxCell>
        <mxCell id="m8FbGWifOpmXwqDXC0YP-23" style="edgeStyle=orthogonalEdgeStyle;rounded=0;orthogonalLoop=1;jettySize=auto;html=1;exitX=0.5;exitY=1;exitDx=0;exitDy=0;entryX=0.5;entryY=0;entryDx=0;entryDy=0;" edge="1" parent="1" source="m8FbGWifOpmXwqDXC0YP-2" target="m8FbGWifOpmXwqDXC0YP-15">
          <mxGeometry relative="1" as="geometry" />
        </mxCell>
        <mxCell id="m8FbGWifOpmXwqDXC0YP-24" style="rounded=0;orthogonalLoop=1;jettySize=auto;html=1;exitX=0.5;exitY=1;exitDx=0;exitDy=0;entryX=0.5;entryY=0;entryDx=0;entryDy=0;" edge="1" parent="1" source="m8FbGWifOpmXwqDXC0YP-1" target="m8FbGWifOpmXwqDXC0YP-11">
          <mxGeometry relative="1" as="geometry" />
        </mxCell>
        <mxCell id="m8FbGWifOpmXwqDXC0YP-25" style="rounded=0;orthogonalLoop=1;jettySize=auto;html=1;exitX=0.5;exitY=1;exitDx=0;exitDy=0;entryX=0.5;entryY=0;entryDx=0;entryDy=0;" edge="1" parent="1" source="m8FbGWifOpmXwqDXC0YP-4" target="m8FbGWifOpmXwqDXC0YP-19">
          <mxGeometry relative="1" as="geometry" />
        </mxCell>
        <mxCell id="m8FbGWifOpmXwqDXC0YP-26" value="" style="group" vertex="1" connectable="0" parent="1">
          <mxGeometry x="70" y="220" width="120" height="30" as="geometry" />
        </mxCell>
        <mxCell id="m8FbGWifOpmXwqDXC0YP-27" value="" style="rounded=0;whiteSpace=wrap;html=1;fontStyle=1;fontSize=18;fillColor=#dae8fc;strokeColor=#6c8ebf;" vertex="1" parent="m8FbGWifOpmXwqDXC0YP-26">
          <mxGeometry width="40" height="30" as="geometry" />
        </mxCell>
        <mxCell id="m8FbGWifOpmXwqDXC0YP-28" value="" style="rounded=0;whiteSpace=wrap;html=1;fontStyle=1;fontSize=18;fillColor=#dae8fc;strokeColor=#6c8ebf;" vertex="1" parent="m8FbGWifOpmXwqDXC0YP-26">
          <mxGeometry x="40" width="40" height="30" as="geometry" />
        </mxCell>
        <mxCell id="m8FbGWifOpmXwqDXC0YP-29" value="1" style="rounded=0;whiteSpace=wrap;html=1;fontStyle=1;fontSize=18;fillColor=#dae8fc;strokeColor=#6c8ebf;" vertex="1" parent="m8FbGWifOpmXwqDXC0YP-26">
          <mxGeometry x="80" width="40" height="30" as="geometry" />
        </mxCell>
        <mxCell id="m8FbGWifOpmXwqDXC0YP-30" value="" style="group" vertex="1" connectable="0" parent="1">
          <mxGeometry x="220" y="220" width="120" height="30" as="geometry" />
        </mxCell>
        <mxCell id="m8FbGWifOpmXwqDXC0YP-31" value="" style="rounded=0;whiteSpace=wrap;html=1;fontStyle=1;fontSize=18;fillColor=#dae8fc;strokeColor=#6c8ebf;" vertex="1" parent="m8FbGWifOpmXwqDXC0YP-30">
          <mxGeometry width="40" height="30" as="geometry" />
        </mxCell>
        <mxCell id="m8FbGWifOpmXwqDXC0YP-32" value="" style="rounded=0;whiteSpace=wrap;html=1;fontStyle=1;fontSize=18;fillColor=#dae8fc;strokeColor=#6c8ebf;" vertex="1" parent="m8FbGWifOpmXwqDXC0YP-30">
          <mxGeometry x="40" width="40" height="30" as="geometry" />
        </mxCell>
        <mxCell id="m8FbGWifOpmXwqDXC0YP-33" value="x" style="rounded=0;whiteSpace=wrap;html=1;fontStyle=1;fontSize=18;fillColor=#dae8fc;strokeColor=#6c8ebf;" vertex="1" parent="m8FbGWifOpmXwqDXC0YP-30">
          <mxGeometry x="80" width="40" height="30" as="geometry" />
        </mxCell>
        <mxCell id="m8FbGWifOpmXwqDXC0YP-38" value="" style="group" vertex="1" connectable="0" parent="1">
          <mxGeometry x="510" y="220" width="120" height="30" as="geometry" />
        </mxCell>
        <mxCell id="m8FbGWifOpmXwqDXC0YP-39" value="" style="rounded=0;whiteSpace=wrap;html=1;fontStyle=1;fontSize=18;fillColor=#dae8fc;strokeColor=#6c8ebf;" vertex="1" parent="m8FbGWifOpmXwqDXC0YP-38">
          <mxGeometry width="40" height="30" as="geometry" />
        </mxCell>
        <mxCell id="m8FbGWifOpmXwqDXC0YP-40" value="" style="rounded=0;whiteSpace=wrap;html=1;fontStyle=1;fontSize=18;fillColor=#dae8fc;strokeColor=#6c8ebf;" vertex="1" parent="m8FbGWifOpmXwqDXC0YP-38">
          <mxGeometry x="40" width="40" height="30" as="geometry" />
        </mxCell>
        <mxCell id="m8FbGWifOpmXwqDXC0YP-41" value="x" style="rounded=0;whiteSpace=wrap;html=1;fontStyle=1;fontSize=18;fillColor=#dae8fc;strokeColor=#6c8ebf;" vertex="1" parent="m8FbGWifOpmXwqDXC0YP-38">
          <mxGeometry x="80" width="40" height="30" as="geometry" />
        </mxCell>
        <mxCell id="m8FbGWifOpmXwqDXC0YP-42" value="" style="group" vertex="1" connectable="0" parent="1">
          <mxGeometry x="660" y="220" width="120" height="30" as="geometry" />
        </mxCell>
        <mxCell id="m8FbGWifOpmXwqDXC0YP-43" value="" style="rounded=0;whiteSpace=wrap;html=1;fontStyle=1;fontSize=18;fillColor=#dae8fc;strokeColor=#6c8ebf;" vertex="1" parent="m8FbGWifOpmXwqDXC0YP-42">
          <mxGeometry width="40" height="30" as="geometry" />
        </mxCell>
        <mxCell id="m8FbGWifOpmXwqDXC0YP-44" value="" style="rounded=0;whiteSpace=wrap;html=1;fontStyle=1;fontSize=18;fillColor=#dae8fc;strokeColor=#6c8ebf;" vertex="1" parent="m8FbGWifOpmXwqDXC0YP-42">
          <mxGeometry x="40" width="40" height="30" as="geometry" />
        </mxCell>
        <mxCell id="m8FbGWifOpmXwqDXC0YP-45" value="m" style="rounded=0;whiteSpace=wrap;html=1;fontStyle=1;fontSize=18;fillColor=#dae8fc;strokeColor=#6c8ebf;" vertex="1" parent="m8FbGWifOpmXwqDXC0YP-42">
          <mxGeometry x="80" width="40" height="30" as="geometry" />
        </mxCell>
        <mxCell id="m8FbGWifOpmXwqDXC0YP-46" style="rounded=0;orthogonalLoop=1;jettySize=auto;html=1;exitX=0.5;exitY=1;exitDx=0;exitDy=0;entryX=0.5;entryY=0;entryDx=0;entryDy=0;" edge="1" parent="1" source="m8FbGWifOpmXwqDXC0YP-10" target="m8FbGWifOpmXwqDXC0YP-28">
          <mxGeometry relative="1" as="geometry" />
        </mxCell>
        <mxCell id="m8FbGWifOpmXwqDXC0YP-47" style="edgeStyle=orthogonalEdgeStyle;rounded=0;orthogonalLoop=1;jettySize=auto;html=1;exitX=0.5;exitY=1;exitDx=0;exitDy=0;entryX=0.5;entryY=0;entryDx=0;entryDy=0;" edge="1" parent="1" source="m8FbGWifOpmXwqDXC0YP-11" target="m8FbGWifOpmXwqDXC0YP-32">
          <mxGeometry relative="1" as="geometry" />
        </mxCell>
        <mxCell id="m8FbGWifOpmXwqDXC0YP-48" style="edgeStyle=orthogonalEdgeStyle;rounded=0;orthogonalLoop=1;jettySize=auto;html=1;exitX=0.5;exitY=1;exitDx=0;exitDy=0;entryX=0.5;entryY=0;entryDx=0;entryDy=0;" edge="1" parent="1" source="m8FbGWifOpmXwqDXC0YP-19" target="m8FbGWifOpmXwqDXC0YP-40">
          <mxGeometry relative="1" as="geometry" />
        </mxCell>
        <mxCell id="m8FbGWifOpmXwqDXC0YP-50" value="&lt;b&gt;&lt;font style=&quot;font-size: 24px;&quot;&gt;···&lt;/font&gt;&lt;/b&gt;" style="text;html=1;align=center;verticalAlign=middle;resizable=0;points=[];autosize=1;strokeColor=none;fillColor=none;" vertex="1" parent="1">
          <mxGeometry x="180" y="215" width="50" height="40" as="geometry" />
        </mxCell>
        <mxCell id="m8FbGWifOpmXwqDXC0YP-51" value="&lt;b&gt;&lt;font style=&quot;font-size: 24px;&quot;&gt;···&lt;/font&gt;&lt;/b&gt;" style="text;html=1;align=center;verticalAlign=middle;resizable=0;points=[];autosize=1;strokeColor=none;fillColor=none;" vertex="1" parent="1">
          <mxGeometry x="330" y="135" width="50" height="40" as="geometry" />
        </mxCell>
        <mxCell id="m8FbGWifOpmXwqDXC0YP-52" value="&lt;b&gt;&lt;font style=&quot;font-size: 24px;&quot;&gt;···&lt;/font&gt;&lt;/b&gt;" style="text;html=1;align=center;verticalAlign=middle;resizable=0;points=[];autosize=1;strokeColor=none;fillColor=none;" vertex="1" parent="1">
          <mxGeometry x="480" y="135" width="50" height="40" as="geometry" />
        </mxCell>
        <mxCell id="m8FbGWifOpmXwqDXC0YP-54" value="&lt;b&gt;&lt;font style=&quot;font-size: 24px;&quot;&gt;···&lt;/font&gt;&lt;/b&gt;" style="text;html=1;align=center;verticalAlign=middle;resizable=0;points=[];autosize=1;strokeColor=none;fillColor=none;" vertex="1" parent="1">
          <mxGeometry x="620" y="215" width="50" height="40" as="geometry" />
        </mxCell>
        <mxCell id="m8FbGWifOpmXwqDXC0YP-55" value="&lt;b&gt;&lt;font style=&quot;font-size: 24px;&quot;&gt;···&lt;/font&gt;&lt;/b&gt;" style="text;html=1;align=center;verticalAlign=middle;resizable=0;points=[];autosize=1;strokeColor=none;fillColor=none;" vertex="1" parent="1">
          <mxGeometry x="405" y="215" width="50" height="40" as="geometry" />
        </mxCell>
        <mxCell id="m8FbGWifOpmXwqDXC0YP-60" value="" style="group" vertex="1" connectable="0" parent="1">
          <mxGeometry x="150" y="330" width="120" height="30" as="geometry" />
        </mxCell>
        <mxCell id="m8FbGWifOpmXwqDXC0YP-61" value="cp" style="rounded=0;whiteSpace=wrap;html=1;fontStyle=1;fontSize=18;fillColor=#dae8fc;strokeColor=#6c8ebf;" vertex="1" parent="m8FbGWifOpmXwqDXC0YP-60">
          <mxGeometry width="40" height="30" as="geometry" />
        </mxCell>
        <mxCell id="m8FbGWifOpmXwqDXC0YP-62" value="cw" style="rounded=0;whiteSpace=wrap;html=1;fontStyle=1;fontSize=18;fillColor=#dae8fc;strokeColor=#6c8ebf;" vertex="1" parent="m8FbGWifOpmXwqDXC0YP-60">
          <mxGeometry x="40" width="40" height="30" as="geometry" />
        </mxCell>
        <mxCell id="m8FbGWifOpmXwqDXC0YP-63" value="1" style="rounded=0;whiteSpace=wrap;html=1;fontStyle=1;fontSize=18;fillColor=#dae8fc;strokeColor=#6c8ebf;" vertex="1" parent="m8FbGWifOpmXwqDXC0YP-60">
          <mxGeometry x="80" width="40" height="30" as="geometry" />
        </mxCell>
        <mxCell id="m8FbGWifOpmXwqDXC0YP-64" value="" style="group" vertex="1" connectable="0" parent="1">
          <mxGeometry y="400" width="120" height="30" as="geometry" />
        </mxCell>
        <mxCell id="m8FbGWifOpmXwqDXC0YP-65" value="" style="rounded=0;whiteSpace=wrap;html=1;fontStyle=1;fontSize=18;fillColor=#dae8fc;strokeColor=#6c8ebf;" vertex="1" parent="m8FbGWifOpmXwqDXC0YP-64">
          <mxGeometry width="40" height="30" as="geometry" />
        </mxCell>
        <mxCell id="m8FbGWifOpmXwqDXC0YP-66" value="" style="rounded=0;whiteSpace=wrap;html=1;fontStyle=1;fontSize=18;fillColor=#dae8fc;strokeColor=#6c8ebf;" vertex="1" parent="m8FbGWifOpmXwqDXC0YP-64">
          <mxGeometry x="40" width="40" height="30" as="geometry" />
        </mxCell>
        <mxCell id="m8FbGWifOpmXwqDXC0YP-67" value="1" style="rounded=0;whiteSpace=wrap;html=1;fontStyle=1;fontSize=18;fillColor=#dae8fc;strokeColor=#6c8ebf;" vertex="1" parent="m8FbGWifOpmXwqDXC0YP-64">
          <mxGeometry x="80" width="40" height="30" as="geometry" />
        </mxCell>
        <mxCell id="m8FbGWifOpmXwqDXC0YP-68" value="" style="group" vertex="1" connectable="0" parent="1">
          <mxGeometry x="150" y="400" width="120" height="30" as="geometry" />
        </mxCell>
        <mxCell id="m8FbGWifOpmXwqDXC0YP-69" value="" style="rounded=0;whiteSpace=wrap;html=1;fontStyle=1;fontSize=18;fillColor=#dae8fc;strokeColor=#6c8ebf;" vertex="1" parent="m8FbGWifOpmXwqDXC0YP-68">
          <mxGeometry width="40" height="30" as="geometry" />
        </mxCell>
        <mxCell id="m8FbGWifOpmXwqDXC0YP-70" value="" style="rounded=0;whiteSpace=wrap;html=1;fontStyle=1;fontSize=18;fillColor=#dae8fc;strokeColor=#6c8ebf;" vertex="1" parent="m8FbGWifOpmXwqDXC0YP-68">
          <mxGeometry x="40" width="40" height="30" as="geometry" />
        </mxCell>
        <mxCell id="m8FbGWifOpmXwqDXC0YP-71" value="x" style="rounded=0;whiteSpace=wrap;html=1;fontStyle=1;fontSize=18;fillColor=#dae8fc;strokeColor=#6c8ebf;" vertex="1" parent="m8FbGWifOpmXwqDXC0YP-68">
          <mxGeometry x="80" width="40" height="30" as="geometry" />
        </mxCell>
        <mxCell id="m8FbGWifOpmXwqDXC0YP-72" value="" style="group" vertex="1" connectable="0" parent="1">
          <mxGeometry x="290" y="400" width="120" height="30" as="geometry" />
        </mxCell>
        <mxCell id="m8FbGWifOpmXwqDXC0YP-73" value="" style="rounded=0;whiteSpace=wrap;html=1;fontStyle=1;fontSize=18;fillColor=#dae8fc;strokeColor=#6c8ebf;" vertex="1" parent="m8FbGWifOpmXwqDXC0YP-72">
          <mxGeometry width="40" height="30" as="geometry" />
        </mxCell>
        <mxCell id="m8FbGWifOpmXwqDXC0YP-74" value="" style="rounded=0;whiteSpace=wrap;html=1;fontStyle=1;fontSize=18;fillColor=#dae8fc;strokeColor=#6c8ebf;" vertex="1" parent="m8FbGWifOpmXwqDXC0YP-72">
          <mxGeometry x="40" width="40" height="30" as="geometry" />
        </mxCell>
        <mxCell id="m8FbGWifOpmXwqDXC0YP-76" value="m" style="rounded=0;whiteSpace=wrap;html=1;fontStyle=1;fontSize=18;fillColor=#dae8fc;strokeColor=#6c8ebf;" vertex="1" parent="m8FbGWifOpmXwqDXC0YP-72">
          <mxGeometry x="80" width="40" height="30" as="geometry" />
        </mxCell>
        <mxCell id="m8FbGWifOpmXwqDXC0YP-77" style="edgeStyle=orthogonalEdgeStyle;rounded=0;orthogonalLoop=1;jettySize=auto;html=1;exitX=0.5;exitY=1;exitDx=0;exitDy=0;entryX=0.5;entryY=0;entryDx=0;entryDy=0;" edge="1" parent="1" source="m8FbGWifOpmXwqDXC0YP-62" target="m8FbGWifOpmXwqDXC0YP-70">
          <mxGeometry relative="1" as="geometry" />
        </mxCell>
        <mxCell id="m8FbGWifOpmXwqDXC0YP-78" style="rounded=0;orthogonalLoop=1;jettySize=auto;html=1;exitX=0.5;exitY=1;exitDx=0;exitDy=0;entryX=0.5;entryY=0;entryDx=0;entryDy=0;" edge="1" parent="1" source="m8FbGWifOpmXwqDXC0YP-61" target="m8FbGWifOpmXwqDXC0YP-66">
          <mxGeometry relative="1" as="geometry" />
        </mxCell>
        <mxCell id="m8FbGWifOpmXwqDXC0YP-79" style="rounded=0;orthogonalLoop=1;jettySize=auto;html=1;exitX=0.5;exitY=1;exitDx=0;exitDy=0;entryX=0.5;entryY=0;entryDx=0;entryDy=0;" edge="1" parent="1" source="m8FbGWifOpmXwqDXC0YP-63" target="m8FbGWifOpmXwqDXC0YP-74">
          <mxGeometry relative="1" as="geometry" />
        </mxCell>
        <mxCell id="m8FbGWifOpmXwqDXC0YP-80" value="&lt;b&gt;&lt;font style=&quot;font-size: 24px;&quot;&gt;···&lt;/font&gt;&lt;/b&gt;" style="text;html=1;align=center;verticalAlign=middle;resizable=0;points=[];autosize=1;strokeColor=none;fillColor=none;" vertex="1" parent="1">
          <mxGeometry x="110" y="395" width="50" height="40" as="geometry" />
        </mxCell>
        <mxCell id="m8FbGWifOpmXwqDXC0YP-81" value="&lt;b&gt;&lt;font style=&quot;font-size: 24px;&quot;&gt;···&lt;/font&gt;&lt;/b&gt;" style="text;html=1;align=center;verticalAlign=middle;resizable=0;points=[];autosize=1;strokeColor=none;fillColor=none;" vertex="1" parent="1">
          <mxGeometry x="260" y="395" width="50" height="40" as="geometry" />
        </mxCell>
        <mxCell id="m8FbGWifOpmXwqDXC0YP-82" value="" style="group" vertex="1" connectable="0" parent="1">
          <mxGeometry x="590" y="330" width="120" height="30" as="geometry" />
        </mxCell>
        <mxCell id="m8FbGWifOpmXwqDXC0YP-83" value="cp" style="rounded=0;whiteSpace=wrap;html=1;fontStyle=1;fontSize=18;fillColor=#dae8fc;strokeColor=#6c8ebf;" vertex="1" parent="m8FbGWifOpmXwqDXC0YP-82">
          <mxGeometry width="40" height="30" as="geometry" />
        </mxCell>
        <mxCell id="m8FbGWifOpmXwqDXC0YP-84" value="cw" style="rounded=0;whiteSpace=wrap;html=1;fontStyle=1;fontSize=18;fillColor=#dae8fc;strokeColor=#6c8ebf;" vertex="1" parent="m8FbGWifOpmXwqDXC0YP-82">
          <mxGeometry x="40" width="40" height="30" as="geometry" />
        </mxCell>
        <mxCell id="m8FbGWifOpmXwqDXC0YP-85" value="m" style="rounded=0;whiteSpace=wrap;html=1;fontStyle=1;fontSize=18;fillColor=#dae8fc;strokeColor=#6c8ebf;" vertex="1" parent="m8FbGWifOpmXwqDXC0YP-82">
          <mxGeometry x="80" width="40" height="30" as="geometry" />
        </mxCell>
        <mxCell id="m8FbGWifOpmXwqDXC0YP-86" value="" style="group" vertex="1" connectable="0" parent="1">
          <mxGeometry x="440" y="400" width="120" height="30" as="geometry" />
        </mxCell>
        <mxCell id="m8FbGWifOpmXwqDXC0YP-87" value="" style="rounded=0;whiteSpace=wrap;html=1;fontStyle=1;fontSize=18;fillColor=#dae8fc;strokeColor=#6c8ebf;" vertex="1" parent="m8FbGWifOpmXwqDXC0YP-86">
          <mxGeometry width="40" height="30" as="geometry" />
        </mxCell>
        <mxCell id="m8FbGWifOpmXwqDXC0YP-88" value="" style="rounded=0;whiteSpace=wrap;html=1;fontStyle=1;fontSize=18;fillColor=#dae8fc;strokeColor=#6c8ebf;" vertex="1" parent="m8FbGWifOpmXwqDXC0YP-86">
          <mxGeometry x="40" width="40" height="30" as="geometry" />
        </mxCell>
        <mxCell id="m8FbGWifOpmXwqDXC0YP-89" value="1" style="rounded=0;whiteSpace=wrap;html=1;fontStyle=1;fontSize=18;fillColor=#dae8fc;strokeColor=#6c8ebf;" vertex="1" parent="m8FbGWifOpmXwqDXC0YP-86">
          <mxGeometry x="80" width="40" height="30" as="geometry" />
        </mxCell>
        <mxCell id="m8FbGWifOpmXwqDXC0YP-90" value="" style="group" vertex="1" connectable="0" parent="1">
          <mxGeometry x="590" y="400" width="120" height="30" as="geometry" />
        </mxCell>
        <mxCell id="m8FbGWifOpmXwqDXC0YP-91" value="" style="rounded=0;whiteSpace=wrap;html=1;fontStyle=1;fontSize=18;fillColor=#dae8fc;strokeColor=#6c8ebf;" vertex="1" parent="m8FbGWifOpmXwqDXC0YP-90">
          <mxGeometry width="40" height="30" as="geometry" />
        </mxCell>
        <mxCell id="m8FbGWifOpmXwqDXC0YP-92" value="" style="rounded=0;whiteSpace=wrap;html=1;fontStyle=1;fontSize=18;fillColor=#dae8fc;strokeColor=#6c8ebf;" vertex="1" parent="m8FbGWifOpmXwqDXC0YP-90">
          <mxGeometry x="40" width="40" height="30" as="geometry" />
        </mxCell>
        <mxCell id="m8FbGWifOpmXwqDXC0YP-93" value="x" style="rounded=0;whiteSpace=wrap;html=1;fontStyle=1;fontSize=18;fillColor=#dae8fc;strokeColor=#6c8ebf;" vertex="1" parent="m8FbGWifOpmXwqDXC0YP-90">
          <mxGeometry x="80" width="40" height="30" as="geometry" />
        </mxCell>
        <mxCell id="m8FbGWifOpmXwqDXC0YP-94" value="" style="group" vertex="1" connectable="0" parent="1">
          <mxGeometry x="730" y="400" width="120" height="30" as="geometry" />
        </mxCell>
        <mxCell id="m8FbGWifOpmXwqDXC0YP-95" value="" style="rounded=0;whiteSpace=wrap;html=1;fontStyle=1;fontSize=18;fillColor=#dae8fc;strokeColor=#6c8ebf;" vertex="1" parent="m8FbGWifOpmXwqDXC0YP-94">
          <mxGeometry width="40" height="30" as="geometry" />
        </mxCell>
        <mxCell id="m8FbGWifOpmXwqDXC0YP-96" value="" style="rounded=0;whiteSpace=wrap;html=1;fontStyle=1;fontSize=18;fillColor=#dae8fc;strokeColor=#6c8ebf;" vertex="1" parent="m8FbGWifOpmXwqDXC0YP-94">
          <mxGeometry x="40" width="40" height="30" as="geometry" />
        </mxCell>
        <mxCell id="m8FbGWifOpmXwqDXC0YP-98" value="m" style="rounded=0;whiteSpace=wrap;html=1;fontStyle=1;fontSize=18;fillColor=#dae8fc;strokeColor=#6c8ebf;" vertex="1" parent="m8FbGWifOpmXwqDXC0YP-94">
          <mxGeometry x="80" width="40" height="30" as="geometry" />
        </mxCell>
        <mxCell id="m8FbGWifOpmXwqDXC0YP-99" style="edgeStyle=orthogonalEdgeStyle;rounded=0;orthogonalLoop=1;jettySize=auto;html=1;exitX=0.5;exitY=1;exitDx=0;exitDy=0;entryX=0.5;entryY=0;entryDx=0;entryDy=0;" edge="1" parent="1" source="m8FbGWifOpmXwqDXC0YP-84" target="m8FbGWifOpmXwqDXC0YP-92">
          <mxGeometry relative="1" as="geometry" />
        </mxCell>
        <mxCell id="m8FbGWifOpmXwqDXC0YP-100" style="rounded=0;orthogonalLoop=1;jettySize=auto;html=1;exitX=0.5;exitY=1;exitDx=0;exitDy=0;entryX=0.5;entryY=0;entryDx=0;entryDy=0;" edge="1" parent="1" source="m8FbGWifOpmXwqDXC0YP-83" target="m8FbGWifOpmXwqDXC0YP-88">
          <mxGeometry relative="1" as="geometry" />
        </mxCell>
        <mxCell id="m8FbGWifOpmXwqDXC0YP-101" style="rounded=0;orthogonalLoop=1;jettySize=auto;html=1;exitX=0.5;exitY=1;exitDx=0;exitDy=0;entryX=0.5;entryY=0;entryDx=0;entryDy=0;" edge="1" parent="1" source="m8FbGWifOpmXwqDXC0YP-85" target="m8FbGWifOpmXwqDXC0YP-96">
          <mxGeometry relative="1" as="geometry" />
        </mxCell>
        <mxCell id="m8FbGWifOpmXwqDXC0YP-102" value="&lt;b&gt;&lt;font style=&quot;font-size: 24px;&quot;&gt;···&lt;/font&gt;&lt;/b&gt;" style="text;html=1;align=center;verticalAlign=middle;resizable=0;points=[];autosize=1;strokeColor=none;fillColor=none;" vertex="1" parent="1">
          <mxGeometry x="550" y="395" width="50" height="40" as="geometry" />
        </mxCell>
        <mxCell id="m8FbGWifOpmXwqDXC0YP-103" value="&lt;b&gt;&lt;font style=&quot;font-size: 24px;&quot;&gt;···&lt;/font&gt;&lt;/b&gt;" style="text;html=1;align=center;verticalAlign=middle;resizable=0;points=[];autosize=1;strokeColor=none;fillColor=none;" vertex="1" parent="1">
          <mxGeometry x="700" y="395" width="50" height="40" as="geometry" />
        </mxCell>
        <mxCell id="m8FbGWifOpmXwqDXC0YP-104" value="&lt;b&gt;&lt;font style=&quot;font-size: 24px;&quot;&gt;···&lt;/font&gt;&lt;/b&gt;" style="text;html=1;align=center;verticalAlign=middle;resizable=0;points=[];autosize=1;strokeColor=none;fillColor=none;" vertex="1" parent="1">
          <mxGeometry x="180" y="280" width="50" height="40" as="geometry" />
        </mxCell>
        <mxCell id="m8FbGWifOpmXwqDXC0YP-107" value="&lt;b&gt;&lt;font style=&quot;font-size: 24px;&quot;&gt;···&lt;/font&gt;&lt;/b&gt;" style="text;html=1;align=center;verticalAlign=middle;resizable=0;points=[];autosize=1;strokeColor=none;fillColor=none;" vertex="1" parent="1">
          <mxGeometry x="400" y="395" width="50" height="40" as="geometry" />
        </mxCell>
        <mxCell id="m8FbGWifOpmXwqDXC0YP-109" value="&lt;b&gt;&lt;font style=&quot;font-size: 24px;&quot;&gt;···&lt;/font&gt;&lt;/b&gt;" style="text;html=1;align=center;verticalAlign=middle;resizable=0;points=[];autosize=1;strokeColor=none;fillColor=none;" vertex="1" parent="1">
          <mxGeometry x="620" y="280" width="50" height="40" as="geometry" />
        </mxCell>
      </root>
    </mxGraphModel>
  </diagram>
</mxfile>
